<?xml version="1.0" encoding="UTF-8" standalone="no"?>
<!DOCTYPE svg PUBLIC "-//W3C//DTD SVG 1.1//EN" "http://www.w3.org/Graphics/SVG/1.1/DTD/svg11.dtd">
<svg xmlns="http://www.w3.org/2000/svg" version="1.1" viewBox="0 0 372 373" width="372.0pt" height="373.0pt">
<path d="M 0.00 0.00 L 372.00 0.00 L 372.00 373.00 L 0.00 373.00 L 0.00 0.00 Z" fill="#c7a1c8" />
<path d="M 61.07 62.08 C 100.38 61.93 139.69 62.07 179.00 62.01 C 188.72 61.96 198.40 62.43 208.00 64.01 C 229.55 67.70 249.93 77.28 266.62 91.37 C 272.27 96.38 277.56 101.81 282.54 107.48 C 302.56 131.28 312.68 163.01 310.90 194.00 C 309.38 222.35 298.12 249.95 278.98 270.97 C 274.18 275.81 269.35 280.79 264.01 285.03 C 252.46 294.07 239.71 301.33 225.65 305.68 C 204.10 313.07 180.20 313.92 158.02 308.99 C 150.86 307.09 143.71 304.90 136.83 302.16 C 123.11 296.23 110.27 287.88 99.69 277.29 C 83.61 262.37 72.11 243.04 65.95 222.03 C 62.04 208.57 60.93 193.97 61.02 180.00 C 61.07 140.70 60.97 101.39 61.07 62.08 Z" fill="#ffffff" />
<path d="M 146.00 124.50 C 171.33 124.54 196.67 124.50 222.00 124.51 C 226.63 124.55 231.45 124.21 236.03 124.96 C 241.43 125.85 246.15 129.90 247.75 135.15 C 249.70 140.79 248.33 146.88 244.14 151.12 C 240.96 154.69 236.65 155.83 232.00 155.75 C 204.04 155.76 175.97 155.74 148.00 155.75 C 142.44 155.57 136.28 156.69 131.39 153.65 C 127.61 151.68 125.29 147.91 124.01 143.97 C 122.35 137.31 125.52 129.89 131.60 126.62 C 136.15 123.87 140.92 124.57 146.00 124.50 Z" fill="#c7a1c8" />
<path d="M 141.00 171.49 C 168.33 171.51 195.67 171.50 223.00 171.50 C 227.31 171.53 231.77 171.23 236.04 171.84 C 243.96 173.39 249.56 180.93 248.49 189.01 C 247.75 196.84 240.76 202.61 233.05 202.72 C 204.76 202.81 176.31 202.73 148.00 202.75 C 144.39 202.75 140.72 202.93 137.12 202.58 C 132.74 201.97 128.64 199.48 126.25 195.73 C 121.18 188.99 123.69 178.10 130.87 173.88 C 133.97 171.89 137.40 171.51 141.00 171.49 Z" fill="#c7a1c8" />
<path d="M 136.95 218.71 C 144.94 218.22 153.00 218.62 161.00 218.49 C 164.99 218.50 169.09 218.29 173.05 218.77 C 177.81 219.38 181.96 222.57 184.27 226.70 C 187.71 233.38 185.93 242.32 179.66 246.70 C 174.68 250.33 167.82 249.72 162.00 249.78 C 154.02 249.58 145.98 250.06 138.02 249.54 C 132.25 249.06 127.64 246.02 125.13 240.77 C 120.44 231.82 126.88 219.68 136.95 218.71 Z" fill="#c7a1c8" />
</svg>